<?xml version="1.0" encoding="utf-8"?>
<!-- Generator: Adobe Illustrator 15.0.0, SVG Export Plug-In . SVG Version: 6.00 Build 0)  -->
<!DOCTYPE svg PUBLIC "-//W3C//DTD SVG 1.1//EN" "http://www.w3.org/Graphics/SVG/1.1/DTD/svg11.dtd">
<svg version="1.1" id="Layer_1" xmlns="http://www.w3.org/2000/svg" xmlns:xlink="http://www.w3.org/1999/xlink" x="0px" y="0px"
	 width="479.364px" height="232.113px" viewBox="0 0 479.364 232.113" enable-background="new 0 0 479.364 232.113"
	 xml:space="preserve">
<g>
	<g>
		<path fill="#7FC8EC" d="M141.081,222.532l-0.478-0.731L8.895,20.009h463.259L141.081,222.532z M12.219,21.809l129.414,198.276
			L465.761,21.809H12.219z"/>
		<circle fill="#7FC8EC" cx="10.557" cy="20.909" r="3.5"/>
		<path fill="#7FC8EC" d="M144.852,221.309c0,1.935-1.567,3.5-3.501,3.5c-1.932,0-3.499-1.565-3.499-3.5c0-1.93,1.567-3.5,3.499-3.5
			C143.284,217.809,144.852,219.379,144.852,221.309z"/>
		<circle fill="#7FC8EC" cx="468.957" cy="20.909" r="3.5"/>
	</g>
	<g>
		<path fill="#FFFFFF" d="M149.211,229.854L1.773,38.148L463.646,2.356l-2.59,1.873L149.211,229.854z M5.227,39.686l144.346,187.685
			L457.412,4.644L5.227,39.686z"/>
		<circle fill="#FFFFFF" cx="3.5" cy="38.917" r="3.5"/>
		<path fill="#FFFFFF" d="M152.876,228.342c0.149,1.929-1.292,3.611-3.22,3.761c-1.926,0.148-3.609-1.292-3.759-3.22
			c-0.148-1.925,1.292-3.611,3.219-3.76C151.044,224.973,152.728,226.418,152.876,228.342z"/>
		<circle fill="#FFFFFF" cx="460.53" cy="3.5" r="3.5"/>
	</g>
	<g>
		<path fill="#259AD7" d="M132.397,215.638l-0.416-0.769L17.46,2.85l461.664,38.417L132.397,215.638z M20.624,4.919L133.15,213.245
			L472.604,42.53L20.624,4.919z"/>
		<path fill="#259AD7" d="M22.53,4.175c-0.16,1.927-1.852,3.356-3.778,3.197c-1.924-0.16-3.357-1.85-3.197-3.775
			c0.161-1.925,1.854-3.357,3.778-3.2C21.259,0.56,22.69,2.253,22.53,4.175z"/>
		<circle fill="#259AD7" cx="132.768" cy="214.442" r="3.5"/>
		<circle fill="#259AD7" cx="475.864" cy="41.901" r="3.499"/>
	</g>
</g>
</svg>
