<?xml version="1.0" encoding="utf-8"?>
<!-- Generator: Adobe Illustrator 15.0.0, SVG Export Plug-In . SVG Version: 6.00 Build 0)  -->
<!DOCTYPE svg PUBLIC "-//W3C//DTD SVG 1.1//EN" "http://www.w3.org/Graphics/SVG/1.1/DTD/svg11.dtd">
<svg version="1.1" id="Layer_1" xmlns="http://www.w3.org/2000/svg" xmlns:xlink="http://www.w3.org/1999/xlink" x="0px" y="0px"
	 width="112px" height="112px" viewBox="0 0 112 112" enable-background="new 0 0 112 112" xml:space="preserve">
<g>
	<g>
		<circle fill="#FFFFFF" cx="77.79" cy="44.888" r="3.5"/>
		<circle fill="#FFFFFF" cx="42.877" cy="58.013" r="3.5"/>
		<circle fill="#FFFFFF" cx="77.79" cy="61.513" r="3.5"/>
		<circle fill="#FFFFFF" cx="33.777" cy="49.963" r="3.5"/>
		<circle fill="#FFFFFF" cx="53.464" cy="42.088" r="3.5"/>
		<polygon fill="#FFFFFF" points="77.79,45.588 67.639,45.588 67.639,24.938 69.04,24.938 69.04,44.188 77.79,44.188 		"/>
		<polygon fill="#FFFFFF" points="69.04,87.062 67.639,87.062 67.639,60.812 76.764,60.812 76.764,62.213 69.04,62.213 		"/>
		<polygon fill="#FFFFFF" points="63.615,87.062 62.214,87.062 62.214,42.788 53.464,42.788 53.464,41.388 63.615,41.388 		"/>
		<polygon fill="#FFFFFF" points="58.89,87.062 57.49,87.062 57.49,50.663 33.165,50.663 33.165,49.263 58.89,49.263 		"/>
		<polygon fill="#FFFFFF" points="53.115,87.062 51.714,87.062 51.714,58.888 42.877,58.888 42.877,57.487 53.115,57.487 		"/>
	</g>
</g>
</svg>
