<?xml version="1.0" encoding="utf-8"?>
<!-- Generator: Adobe Illustrator 15.0.0, SVG Export Plug-In . SVG Version: 6.00 Build 0)  -->
<!DOCTYPE svg PUBLIC "-//W3C//DTD SVG 1.1//EN" "http://www.w3.org/Graphics/SVG/1.1/DTD/svg11.dtd">
<svg version="1.1" id="Layer_1" xmlns="http://www.w3.org/2000/svg" xmlns:xlink="http://www.w3.org/1999/xlink" x="0px" y="0px"
	 width="112px" height="112px" viewBox="0 0 112 112" enable-background="new 0 0 112 112" xml:space="preserve">
<g>
	<g>
		<path fill="#FFFFFF" d="M22.05,59.499c-0.966,0-1.841-0.391-2.475-1.024c-0.634-0.634-1.025-1.509-1.025-2.476
			s0.392-1.841,1.025-2.475c0.633-0.633,1.508-1.025,2.475-1.025c0.967,0,1.842,0.392,2.475,1.025s1.025,1.508,1.025,2.475
			s-0.392,1.842-1.025,2.476S23.017,59.499,22.05,59.499z"/>
		<path fill="#FFFFFF" d="M39.533,52.016c0.422-0.423,3.34-0.684,3.984-0.684s3.561,0.261,3.982,0.684
			c0.422,0.422,0.684,3.338,0.684,3.983s-0.262,3.562-0.684,3.984s-3.338,0.684-3.982,0.684s-3.562-0.262-3.984-0.684
			s-0.684-3.34-0.684-3.984S39.111,52.438,39.533,52.016z"/>
		<path fill="#FFFFFF" d="M59.492,50.508c0.211-0.211,5.17-0.341,5.492-0.341s5.281,0.13,5.492,0.341s0.342,5.169,0.342,5.491
			s-0.131,5.281-0.342,5.492s-5.17,0.342-5.492,0.342s-5.281-0.131-5.492-0.342s-0.342-5.17-0.342-5.492
			S59.281,50.719,59.492,50.508z"/>
		<polygon fill="#FFFFFF" points="93.451,62.999 86.451,62.999 79.451,62.999 79.451,55.999 79.451,49 86.451,49 93.451,49 
			93.451,55.999 		"/>
	</g>
	<rect x="20.873" y="55.299" fill="#FFFFFF" width="65.8" height="1.4"/>
</g>
</svg>
